<svg width="58" height="42" viewBox="0 0 58 42" fill="none" xmlns="http://www.w3.org/2000/svg"><path fill-rule="evenodd" clip-rule="evenodd" d="M0 8C0 3.58172 3.58172 0 8 0H58V0C51.622 3.12896 46.8305 8.76699 44.7712 15.5661L39.0538 34.4427C37.6945 38.9307 33.5578 42 28.8685 42H0V8Z" fill="url(#paint1_linear)"></path> <g filter="url(#filter1_d)"><path d="M21.2691 29.9727L25.0502 11H22.2611C20.7684 12.5312 18.8285 13.543 16.4414 14.0352L16 16.25H16.4687C17.5625 16.25 18.2524 16.3262 18.5384 16.4785C18.8245 16.6309 18.9731 16.8555 18.9842 17.1523C18.9954 17.4492 18.8546 18.332 18.5619 19.8008L16.5347 29.9727H21.2691Z" fill="white"></path> <!----> <!----></g> <!----> <!----> <!----> <!----> <defs><filter id="filter1_d" x="16" y="11" width="10.0502" height="19.9727" filterUnits="userSpaceOnUse" color-interpolation-filters="sRGB"><feFlood flood-opacity="0" result="BackgroundImageFix"></feFlood> <feColorMatrix in="SourceAlpha" type="matrix" values="0 0 0 0 0 0 0 0 0 0 0 0 0 0 0 0 0 0 127 0"></feColorMatrix> <feOffset dx="1" dy="1"></feOffset> <feColorMatrix type="matrix" values="0 0 0 0 0.976336 0 0 0 0 0.707518 0 0 0 0 0.0335243 0 0 0 1 0"></feColorMatrix> <feBlend mode="normal" in2="BackgroundImageFix" result="effect1_dropShadow"></feBlend> <feBlend mode="normal" in="SourceGraphic" in2="effect1_dropShadow" result="shape"></feBlend></filter> <!----> <!----> <linearGradient id="paint1_linear" x1="0" y1="0" x2="0" y2="42" gradientUnits="userSpaceOnUse"><stop stop-color="#FFFD8C"></stop> <stop offset="1" stop-color="#FFA30D"></stop></linearGradient></defs></svg>