<svg width="58" height="42" viewBox="0 0 58 42" fill="none" xmlns="http://www.w3.org/2000/svg"><path fill-rule="evenodd" clip-rule="evenodd" d="M0 8C0 3.58172 3.58172 0 8 0H58V0C51.622 3.12896 46.8305 8.76699 44.7712 15.5661L39.0538 34.4427C37.6945 38.9307 33.5578 42 28.8685 42H0V8Z" fill="url(#paint2_linear)"></path> <g filter="url(#filter2_d)"><!----> <path d="M24.418 30.3359L25.0625 27.1016H19.8711C23.3105 23.1719 25.4224 20.6016 26.2067 19.3906C26.991 18.1797 27.4913 17.0312 27.7078 15.9453C27.9927 14.5156 27.7457 13.334 26.967 12.4004C26.1882 11.4668 24.8574 11 22.9746 11C22.0136 11 21.159 11.1523 20.4108 11.457C19.6626 11.7617 19.0145 12.2109 18.4665 12.8047C17.9184 13.3984 17.5286 14.002 17.297 14.6152C17.0654 15.2285 16.8438 16.0664 16.632 17.1289L16.4942 17.8203H20.7364L21.0961 16.0156C21.2627 15.1797 21.4619 14.6211 21.6937 14.3398C21.9256 14.0586 22.2212 13.918 22.5805 13.918C22.9399 13.918 23.1822 14.0449 23.3074 14.2988C23.4325 14.5527 23.4438 14.9375 23.341 15.4531C23.2071 16.125 22.7296 17.0605 21.9086 18.2598C21.0876 19.459 18.6312 22.582 14.5395 27.6289L14 30.3359H24.418Z" fill="white"></path> <!----></g> <!----> <!----> <!----> <!----> <defs><!----> <filter id="filter2_d" x="14" y="11" width="14.8222" height="20.3359" filterUnits="userSpaceOnUse" color-interpolation-filters="sRGB"><feFlood flood-opacity="0" result="BackgroundImageFix"></feFlood> <feColorMatrix in="SourceAlpha" type="matrix" values="0 0 0 0 0 0 0 0 0 0 0 0 0 0 0 0 0 0 127 0"></feColorMatrix> <feOffset dx="1" dy="1"></feOffset> <feColorMatrix type="matrix" values="0 0 0 0 0.501774 0 0 0 0 0.653582 0 0 0 0 0.921479 0 0 0 1 0"></feColorMatrix> <feBlend mode="normal" in2="BackgroundImageFix" result="effect1_dropShadow"></feBlend> <feBlend mode="normal" in="SourceGraphic" in2="effect1_dropShadow" result="shape"></feBlend></filter> <!----> <linearGradient id="paint2_linear" x1="0" y1="0" x2="0" y2="42" gradientUnits="userSpaceOnUse"><stop stop-color="#C2F4FF"></stop> <stop offset="1" stop-color="#88A5D2"></stop></linearGradient></defs></svg>