<svg width="58" height="42" viewBox="0 0 58 42" fill="none" xmlns="http://www.w3.org/2000/svg"><path fill-rule="evenodd" clip-rule="evenodd" d="M0 8C0 3.58172 3.58172 0 8 0H58V0C51.622 3.12896 46.8305 8.76699 44.7712 15.5661L39.0538 34.4427C37.6945 38.9307 33.5578 42 28.8685 42H0V8Z" fill="url(#paint3_linear)"></path> <g filter="url(#filter3_d)"><!----> <!----> <path d="M18.7487 29.7227C20.069 29.7227 21.1943 29.5059 22.1244 29.0723C23.0546 28.6387 23.7745 28.0059 24.284 27.1738C24.7936 26.3418 25.1986 25.1719 25.4991 23.6641C25.9039 21.6328 25.9854 20.3418 25.7436 19.791C25.5018 19.2402 25.0457 18.8438 24.3752 18.6016C25.1796 18.2109 25.7735 17.7793 26.1567 17.3066C26.54 16.834 26.8375 16.0664 27.0492 15.0039C27.3622 13.4336 27.2043 12.207 26.5755 11.3242C25.9468 10.4414 24.5035 10 22.2457 10C20.441 10 19.0611 10.3184 18.1061 10.9551C17.1511 11.5918 16.493 12.8164 16.1318 14.6289L15.8095 16.2461H20.5438L20.8545 14.6875C20.9993 13.9609 21.1544 13.4863 21.3199 13.2637C21.4853 13.041 21.7321 12.9297 22.0602 12.9297C22.3493 12.9297 22.5412 13.0352 22.6359 13.2461C22.7305 13.457 22.7117 13.8945 22.5794 14.5586L22.3692 15.6133C22.2462 16.2305 22.0973 16.6836 21.9225 16.9727C21.7477 17.2617 21.5189 17.4492 21.2362 17.5352C20.9534 17.6211 20.2495 17.6641 19.1245 17.6641L18.5757 20.418C19.4945 20.4336 20.1035 20.4941 20.4028 20.5996C20.7021 20.7051 20.9003 20.9258 20.9974 21.2617C21.0945 21.5977 21.0707 22.1289 20.9259 22.8555L20.6643 24.168C20.4277 25.3555 20.2227 26.0898 20.0495 26.3711C19.8762 26.6523 19.606 26.793 19.2388 26.793C18.9029 26.793 18.7083 26.6816 18.655 26.459C18.6017 26.2363 18.6568 25.7148 18.8203 24.8945L19.4345 21.8125H14.7001L14.4012 23.3125C14.0416 25.1172 13.9237 26.3848 14.0477 27.1152C14.1716 27.8457 14.6111 28.4629 15.3662 28.9668C16.1212 29.4707 17.2487 29.7227 18.7487 29.7227Z" fill="white"></path></g> <!----> <!----> <!----> <!----> <defs><!----> <!----> <filter id="filter3_d" x="14" y="10" width="14.2052" height="20.7227" filterUnits="userSpaceOnUse" color-interpolation-filters="sRGB"><feFlood flood-opacity="0" result="BackgroundImageFix"></feFlood> <feColorMatrix in="SourceAlpha" type="matrix" values="0 0 0 0 0 0 0 0 0 0 0 0 0 0 0 0 0 0 127 0"></feColorMatrix> <feOffset dx="1" dy="1"></feOffset> <feColorMatrix type="matrix" values="0 0 0 0 0.928187 0 0 0 0 0.638023 0 0 0 0 0.592887 0 0 0 1 0"></feColorMatrix> <feBlend mode="normal" in2="BackgroundImageFix" result="effect1_dropShadow"></feBlend> <feBlend mode="normal" in="SourceGraphic" in2="effect1_dropShadow" result="shape"></feBlend></filter> <linearGradient id="paint3_linear" x1="0" y1="0" x2="0" y2="42" gradientUnits="userSpaceOnUse"><stop stop-color="#FFE4C7"></stop> <stop offset="1" stop-color="#ED9487"></stop></linearGradient></defs></svg>